<svg xmlns="http://www.w3.org/2000/svg" xmlns:xlink="http://www.w3.org/1999/xlink" width="500" zoomAndPan="magnify" viewBox="0 0 375 374.999991" height="500" preserveAspectRatio="xMidYMid meet" version="1.0"><path fill="#ffffff" d="M 187.5 111.925781 L 187.5 263.238281 C 86.726562 263.140625 86.726562 111.828125 187.5 111.925781 Z M 185.070312 103.9375 C 139.824219 105.269531 103.835938 142.324219 103.835938 187.566406 C 103.003906 299.960938 272.027344 299.960938 271.195312 187.566406 C 271.195312 140.390625 232.210938 102.539062 185.070312 103.9375 " fill-opacity="1" fill-rule="nonzero"/><path fill="#ffffff" d="M 180.308594 122.113281 L 180.308594 253.050781 C 161.796875 251.054688 145.886719 245.695312 136.195312 234.773438 C 124.910156 222.058594 119.117188 204.84375 119.117188 187.535156 C 119.117188 170.222656 124.910156 153.007812 136.195312 140.324219 C 145.886719 129.40625 161.796875 124.078125 180.308594 122.113281 Z M 194.691406 114.722656 C 232.84375 118.953125 263.972656 148.050781 263.972656 187.601562 L 263.972656 187.632812 C 264.171875 213.933594 254.714844 232.710938 240.5 245.429688 C 228.214844 256.414062 211.371094 260.542969 194.691406 262.074219 Z M 184.835938 96.714844 C 135.796875 98.144531 96.644531 138.460938 96.613281 187.535156 C 96.414062 217.429688 107.734375 240.765625 124.945312 256.148438 C 142.15625 271.527344 164.863281 279.050781 187.5 279.050781 C 210.136719 279.050781 232.875 271.527344 250.054688 256.148438 C 267.234375 240.765625 278.585938 217.460938 278.355469 187.601562 C 278.386719 136.429688 235.941406 95.214844 184.835938 96.714844 " fill-opacity="1" fill-rule="nonzero"/><path fill="#ffffff" d="M 309.347656 60.058594 L 267.601562 101.839844 C 263.871094 105.636719 269.464844 111.261719 273.261719 107.5 L 315.007812 65.75 C 318.570312 61.957031 313.109375 56.53125 309.347656 60.058594 " fill-opacity="1" fill-rule="nonzero"/><path fill="#ffffff" d="M 312.878906 51.769531 C 309.949219 51.535156 306.617188 52.734375 304.386719 54.832031 L 304.320312 54.898438 L 304.289062 54.964844 L 262.441406 96.78125 C 260.277344 99.011719 259.011719 102.339844 259.175781 105.300781 C 259.378906 108.265625 260.675781 110.796875 262.507812 112.625 C 264.371094 114.457031 266.867188 115.789062 269.832031 115.957031 C 272.828125 116.121094 276.089844 114.824219 278.320312 112.625 L 278.355469 112.625 L 320.203125 70.746094 L 320.234375 70.679688 C 322.367188 68.449219 323.53125 65.21875 323.332031 62.289062 C 323.132812 59.359375 321.832031 56.894531 320 55.097656 C 318.203125 53.265625 315.773438 51.96875 312.878906 51.769531 " fill-opacity="1" fill-rule="nonzero"/><path fill="#ffffff" d="M 363.8125 183.570312 L 304.753906 183.570312 C 299.460938 183.636719 299.460938 191.527344 304.753906 191.5625 L 363.8125 191.5625 C 369.105469 191.527344 369.105469 183.605469 363.8125 183.570312 " fill-opacity="1" fill-rule="nonzero"/><path fill="#ffffff" d="M 304.6875 176.3125 C 301.589844 176.347656 298.328125 177.84375 296.363281 180.074219 C 294.367188 182.304688 293.566406 185.003906 293.566406 187.601562 C 293.566406 190.164062 294.367188 192.859375 296.363281 195.089844 C 298.328125 197.320312 301.589844 198.753906 304.6875 198.785156 L 363.878906 198.785156 C 366.976562 198.753906 370.273438 197.320312 372.203125 195.089844 C 374.199219 192.859375 375 190.164062 375 187.601562 C 375 185.003906 374.199219 182.304688 372.203125 180.074219 C 370.273438 177.84375 366.976562 176.347656 363.878906 176.3125 L 304.6875 176.3125 " fill-opacity="1" fill-rule="nonzero"/><path fill="#ffffff" d="M 315.007812 309.414062 L 273.261719 267.632812 C 269.464844 263.90625 263.871094 269.53125 267.601562 273.292969 L 309.347656 315.074219 C 313.109375 318.601562 318.570312 313.175781 315.007812 309.414062 " fill-opacity="1" fill-rule="nonzero"/><path fill="#ffffff" d="M 269.832031 259.210938 C 266.867188 259.410156 264.371094 260.707031 262.507812 262.539062 C 260.707031 264.371094 259.378906 266.902344 259.175781 269.863281 C 259.011719 272.859375 260.277344 276.121094 262.472656 278.355469 L 262.472656 278.421875 L 304.355469 320.269531 L 304.386719 320.335938 C 306.617188 322.433594 309.949219 323.628906 312.878906 323.429688 C 315.773438 323.199219 318.203125 321.898438 320 320.101562 C 321.832031 318.269531 323.132812 315.808594 323.332031 312.878906 C 323.53125 309.980469 322.367188 306.71875 320.269531 304.488281 L 320.203125 304.421875 L 320.101562 304.289062 L 278.320312 262.539062 L 278.320312 262.472656 C 276.089844 260.277344 272.828125 259.042969 269.832031 259.210938 " fill-opacity="1" fill-rule="nonzero"/><path fill="#ffffff" d="M 191.527344 363.878906 L 191.527344 304.820312 C 191.527344 299.460938 183.503906 299.460938 183.503906 304.820312 L 183.503906 363.878906 C 183.503906 369.207031 191.527344 369.207031 191.527344 363.878906 " fill-opacity="1" fill-rule="nonzero"/><path fill="#ffffff" d="M 187.5 293.601562 C 184.902344 293.601562 182.238281 294.433594 180.007812 296.429688 C 177.746094 298.429688 176.3125 301.691406 176.3125 304.855469 L 176.3125 363.878906 C 176.3125 367.042969 177.746094 370.304688 180.007812 372.304688 C 182.238281 374.300781 184.902344 375.101562 187.5 375.101562 C 190.097656 375.101562 192.828125 374.300781 195.058594 372.304688 C 197.320312 370.304688 198.753906 367.042969 198.753906 363.878906 L 198.753906 304.789062 C 198.753906 301.65625 197.320312 298.429688 195.058594 296.429688 C 192.828125 294.433594 190.097656 293.601562 187.5 293.601562 " fill-opacity="1" fill-rule="nonzero"/><path fill="#ffffff" d="M 65.683594 315.074219 L 107.433594 273.292969 C 110.996094 269.53125 105.570312 264.105469 101.773438 267.632812 L 60.023438 309.414062 C 56.464844 313.175781 61.890625 318.601562 65.683594 315.074219 " fill-opacity="1" fill-rule="nonzero"/><path fill="#ffffff" d="M 105.269531 259.277344 C 102.371094 259.078125 99.109375 260.277344 96.878906 262.375 L 96.746094 262.507812 L 54.796875 304.421875 L 54.765625 304.488281 C 52.632812 306.71875 51.46875 309.980469 51.667969 312.910156 C 51.867188 315.808594 53.167969 318.269531 55 320.101562 C 56.828125 321.898438 59.292969 323.199219 62.1875 323.429688 C 65.117188 323.628906 68.347656 322.433594 70.613281 320.335938 L 70.679688 320.269531 L 70.777344 320.136719 L 112.59375 278.355469 L 112.726562 278.21875 C 114.824219 275.988281 116.023438 272.726562 115.789062 269.796875 C 115.589844 266.902344 114.292969 264.4375 112.492188 262.605469 C 110.664062 260.808594 108.199219 259.476562 105.269531 259.277344 " fill-opacity="1" fill-rule="nonzero"/><path fill="#ffffff" d="M 11.1875 191.5625 L 70.277344 191.5625 C 75.574219 191.527344 75.574219 183.605469 70.277344 183.570312 L 11.1875 183.570312 C 5.925781 183.636719 5.925781 191.527344 11.1875 191.5625 " fill-opacity="1" fill-rule="nonzero"/><path fill="#ffffff" d="M 11.121094 176.3125 C 8.023438 176.347656 4.792969 177.84375 2.828125 180.074219 C 0.867188 182.304688 0 185.003906 0 187.601562 C 0 190.164062 0.867188 192.859375 2.828125 195.089844 C 4.792969 197.320312 8.023438 198.753906 11.121094 198.785156 L 70.378906 198.785156 C 73.476562 198.753906 76.703125 197.320312 78.667969 195.089844 C 80.632812 192.859375 81.433594 190.164062 81.433594 187.601562 C 81.433594 185.003906 80.632812 182.304688 78.667969 180.074219 C 76.703125 177.84375 73.476562 176.347656 70.378906 176.3125 L 11.121094 176.3125 " fill-opacity="1" fill-rule="nonzero"/><path fill="#ffffff" d="M 60.023438 65.75 L 101.773438 107.5 C 105.570312 111.0625 110.996094 105.601562 107.433594 101.839844 L 65.683594 60.058594 C 61.890625 56.53125 56.464844 61.957031 60.023438 65.75 " fill-opacity="1" fill-rule="nonzero"/><path fill="#ffffff" d="M 62.1875 51.769531 C 59.292969 51.96875 56.828125 53.265625 55 55.066406 C 53.167969 56.894531 51.867188 59.359375 51.667969 62.289062 C 51.46875 65.21875 52.632812 68.449219 54.765625 70.679688 L 54.796875 70.746094 L 54.929688 70.8125 L 96.746094 112.691406 L 96.878906 112.757812 C 99.109375 114.855469 102.339844 116.054688 105.269531 115.824219 C 108.199219 115.621094 110.664062 114.324219 112.492188 112.492188 C 114.292969 110.695312 115.589844 108.230469 115.789062 105.300781 C 116.023438 102.371094 114.824219 99.144531 112.726562 96.878906 L 112.59375 96.847656 L 70.679688 54.898438 L 70.613281 54.832031 C 68.347656 52.734375 65.117188 51.535156 62.1875 51.769531 " fill-opacity="1" fill-rule="nonzero"/><path fill="#ffffff" d="M 183.503906 11.253906 L 183.503906 70.347656 C 183.503906 75.671875 191.527344 75.671875 191.527344 70.347656 L 191.527344 11.253906 C 191.527344 5.925781 183.503906 5.925781 183.503906 11.253906 " fill-opacity="1" fill-rule="nonzero"/><path fill="#ffffff" d="M 187.5 0.0351562 C 184.902344 0.0351562 182.238281 0.867188 180.007812 2.863281 C 177.746094 4.859375 176.3125 8.125 176.3125 11.285156 L 176.3125 70.3125 C 176.3125 73.476562 177.746094 76.738281 180.007812 78.734375 C 182.238281 80.734375 184.902344 81.53125 187.5 81.53125 C 190.097656 81.53125 192.828125 80.734375 195.058594 78.734375 C 197.320312 76.738281 198.753906 73.476562 198.753906 70.3125 L 198.753906 11.285156 C 198.753906 8.125 197.320312 4.859375 195.058594 2.863281 C 192.828125 0.867188 190.097656 0.0351562 187.5 0.0351562 " fill-opacity="1" fill-rule="nonzero"/></svg>